<svg xmlns="http://www.w3.org/2000/svg" version="1.1" xmlns:xlink="http://www.w3.org/1999/xlink" xmlns:svgjs="http://svgjs.dev/svgjs" width="1500" height="1500" viewBox="0 0 1500 1500"><rect width="1500" height="1500" fill="#000000"></rect><g transform="matrix(0.6666666666666666,0,0,0.6666666666666666,249.78425655976667,249.78425655976673)"><svg viewBox="0 0 343 343" data-background-color="#ffffff" preserveAspectRatio="xMidYMid meet" height="1500" width="1500" xmlns="http://www.w3.org/2000/svg" xmlns:xlink="http://www.w3.org/1999/xlink"><g id="tight-bounds" transform="matrix(1,0,0,1,0.0740000000000407,0.07400000000001228)"><svg viewBox="0 0 342.85155851775386 342.85155851775386" height="342.85155851775386" width="342.85155851775386"><g><svg></svg></g><g><svg viewBox="0 0 342.85155851775386 342.85155851775386" height="342.85155851775386" width="342.85155851775386"><g><path d="M0 171.426c0-94.676 76.75-171.426 171.426-171.426 94.676 0 171.426 76.75 171.426 171.426 0 94.676-76.75 171.426-171.426 171.426-94.676 0-171.426-76.75-171.426-171.426zM171.426 331.409c88.357 0 159.984-71.627 159.983-159.983 0-88.357-71.627-159.984-159.983-159.984-88.357 0-159.984 71.627-159.984 159.984 0 88.357 71.627 159.984 159.984 159.983z" data-fill-palette-color="tertiary" fill="#ffffff" stroke="transparent"></path><ellipse rx="164.56874808852186" ry="164.56874808852186" cx="171.42577925887693" cy="171.42577925887693" fill="#ffffff" stroke="transparent" stroke-width="0" fill-opacity="1" data-fill-palette-color="tertiary"></ellipse></g><g transform="matrix(1,0,0,1,64.84655864529837,107.98576698888968)"><svg viewBox="0 0 213.1584412271571 126.88002453997449" height="126.88002453997449" width="213.1584412271571"><g><svg viewBox="0 0 213.1584412271571 126.88002453997449" height="126.88002453997449" width="213.1584412271571"><g><svg viewBox="0 0 213.1584412271571 126.88002453997449" height="126.88002453997449" width="213.1584412271571"><g><svg viewBox="0 0 213.1584412271571 126.88002453997449" height="126.88002453997449" width="213.1584412271571"><g id="textblocktransform"><svg viewBox="0 0 213.1584412271571 126.88002453997449" height="126.88002453997449" width="213.1584412271571" id="textblock"><g><svg viewBox="0 0 213.1584412271571 126.88002453997449" height="126.88002453997449" width="213.1584412271571"><g transform="matrix(1,0,0,1,0,0)"><svg width="213.1584412271571" viewBox="1.65 -35.5 65.08999999999999 38.75" height="126.88002453997449" data-palette-color="#ffffff"><path d="M18.25 3.25Q14.5 3.25 13.65-0.1L13.65-0.1Q12.1 0.5 10 0.5L10 0.5Q5.95 0.5 3.8-1.8 1.65-4.1 1.65-8.3L1.65-8.3 1.65-26.7Q1.65-30.9 3.8-33.2 5.95-35.5 10-35.5L10-35.5Q14.05-35.5 16.2-33.2 18.35-30.9 18.35-26.7L18.35-26.7 18.35-8.3Q18.35-4.8 16.8-2.55L16.8-2.55Q17.1-2.05 17.55-1.9 18-1.75 18.85-1.75L18.85-1.75 19.7-1.75 19.7 3.25 18.25 3.25ZM10-4.5Q12.85-4.5 12.85-7.95L12.85-7.95 12.85-27.05Q12.85-30.5 10-30.5L10-30.5Q7.15-30.5 7.15-27.05L7.15-27.05 7.15-7.95Q7.15-4.5 10-4.5L10-4.5ZM30.05 0.5Q26.05 0.5 23.95-1.78 21.85-4.05 21.85-8.3L21.85-8.3 21.85-35 27.35-35 27.35-7.9Q27.35-6.1 28.07-5.3 28.8-4.5 30.15-4.5L30.15-4.5Q31.5-4.5 32.22-5.3 32.95-6.1 32.95-7.9L32.95-7.9 32.95-35 38.25-35 38.25-8.3Q38.25-4.05 36.15-1.78 34.05 0.5 30.05 0.5L30.05 0.5ZM42.14 0L42.14-35 47.64-35 47.64 0 42.14 0ZM50.64 0L50.64-4.9 60.84-30 51.14-30 51.14-35 66.74-35 66.74-30.1 56.54-5 66.74-5 66.74 0 50.64 0Z" opacity="1" transform="matrix(1,0,0,1,0,0)" fill="#000000" class="wordmark-text-0" data-fill-palette-color="quaternary" id="text-0"></path></svg></g></svg></g></svg></g></svg></g><g></g></svg></g></svg></g></svg></g></svg></g><defs></defs></svg><rect width="342.85155851775386" height="342.85155851775386" fill="none" stroke="none" visibility="hidden"></rect></g></svg></g></svg>